<svg xmlns="http://www.w3.org/2000/svg">
  <symbol id="i-profiles" viewBox="0 0 24 24"><g fill="none" stroke="currentColor" stroke-width="1.8" stroke-linecap="round" stroke-linejoin="round"><rect x="3" y="4" width="14" height="12" rx="2.5"/><path d="M3 8.5h14"/><path d="M7 20h11a3 3 0 0 0 3-3V9"/></g></symbol>
  <symbol id="i-proxies" viewBox="0 0 24 24"><g fill="none" stroke="currentColor" stroke-width="1.8" stroke-linecap="round" stroke-linejoin="round"><circle cx="12" cy="12" r="9"/><path d="M3 12h18"/><path d="M12 3c2.5 2.6 3.8 5.6 3.8 9s-1.3 6.4-3.8 9c-2.5-2.6-3.8-5.6-3.8-9S9.5 5.6 12 3z"/></g></symbol>
  <symbol id="i-identities" viewBox="0 0 24 24"><g fill="none" stroke="currentColor" stroke-width="1.8" stroke-linecap="round" stroke-linejoin="round"><rect x="3" y="5" width="18" height="14" rx="2.5"/><circle cx="9" cy="11" r="2.2"/><path d="M5.8 16.2a3.6 3.6 0 0 1 6.4 0"/><path d="M14.5 10h3.5M14.5 13.5h3.5"/></g></symbol>
  <symbol id="i-activity" viewBox="0 0 24 24"><g fill="none" stroke="currentColor" stroke-width="1.8" stroke-linecap="round" stroke-linejoin="round"><path d="M3 12h4l2.5-6 5 12 2.5-6H21"/></g></symbol>
  <symbol id="i-connections" viewBox="0 0 24 24"><g fill="none" stroke="currentColor" stroke-width="1.8" stroke-linecap="round" stroke-linejoin="round"><path d="M9 7.5V3.5M15 7.5V3.5"/><path d="M6.5 7.5h11V11a5.5 5.5 0 0 1-11 0z"/><path d="M12 16.5v4"/></g></symbol>
  <symbol id="i-settings" viewBox="0 0 24 24"><g fill="none" stroke="currentColor" stroke-width="1.8" stroke-linecap="round" stroke-linejoin="round"><path d="M4 6h9M17.5 6H20M4 12h3M11.5 12H20M4 18h11M19.5 18h.5"/><circle cx="15.5" cy="6" r="2"/><circle cx="9.5" cy="12" r="2"/><circle cx="17.5" cy="18" r="2"/></g></symbol>
  <symbol id="i-play" viewBox="0 0 24 24"><g fill="currentColor" stroke="currentColor" stroke-width="1.6" stroke-linejoin="round"><path d="M8 5.8v12.4a.9.9 0 0 0 1.37.77l10-6.2a.9.9 0 0 0 0-1.54l-10-6.2A.9.9 0 0 0 8 5.8z"/></g></symbol>
  <symbol id="i-stop" viewBox="0 0 24 24"><g fill="currentColor" stroke="currentColor" stroke-width="1.6" stroke-linejoin="round"><rect x="6.5" y="6.5" width="11" height="11" rx="2"/></g></symbol>
  <symbol id="i-focus" viewBox="0 0 24 24"><g fill="none" stroke="currentColor" stroke-width="1.8" stroke-linecap="round" stroke-linejoin="round"><path d="M14 4h6v6"/><path d="M20 4l-8.5 8.5"/><path d="M18 14v4a2 2 0 0 1-2 2H6a2 2 0 0 1-2-2V8a2 2 0 0 1 2-2h4"/></g></symbol>
  <symbol id="i-hand" viewBox="0 0 24 24"><g fill="none" stroke="currentColor" stroke-width="1.8" stroke-linecap="round" stroke-linejoin="round"><path d="M5 4l5.6 15.2 2.2-6.4 6.4-2.2z"/><path d="M13.2 13.2l5.3 5.3"/></g></symbol>
  <symbol id="i-sparkles" viewBox="0 0 24 24"><g fill="none" stroke="currentColor" stroke-width="1.8" stroke-linecap="round" stroke-linejoin="round"><path d="M10.5 3.5l1.7 4.6 4.6 1.7-4.6 1.7-1.7 4.6-1.7-4.6L4.2 9.8l4.6-1.7z"/><path d="M18 14l.9 2.1L21 17l-2.1.9L18 20l-.9-2.1L15 17l2.1-.9z"/></g></symbol>
  <symbol id="i-robot" viewBox="0 0 24 24"><g fill="none" stroke="currentColor" stroke-width="1.8" stroke-linecap="round" stroke-linejoin="round"><rect x="4.5" y="8" width="15" height="11" rx="3.2"/><path d="M12 4.5V8"/><circle cx="12" cy="3.6" r=".9"/><path d="M9.3 13h.01M14.7 13h.01"/><path d="M10 16.2h4"/><path d="M2.5 12.5v2.5M21.5 12.5v2.5"/></g></symbol>
  <symbol id="i-plus" viewBox="0 0 24 24"><g fill="none" stroke="currentColor" stroke-width="1.9" stroke-linecap="round"><path d="M12 5v14M5 12h14"/></g></symbol>
  <symbol id="i-search" viewBox="0 0 24 24"><g fill="none" stroke="currentColor" stroke-width="1.8" stroke-linecap="round"><circle cx="11" cy="11" r="6.5"/><path d="M20 20l-4.3-4.3"/></g></symbol>
  <symbol id="i-more" viewBox="0 0 24 24"><g fill="currentColor"><circle cx="5.5" cy="12" r="1.6"/><circle cx="12" cy="12" r="1.6"/><circle cx="18.5" cy="12" r="1.6"/></g></symbol>
  <symbol id="i-x" viewBox="0 0 24 24"><g fill="none" stroke="currentColor" stroke-width="1.9" stroke-linecap="round"><path d="M6.5 6.5l11 11M17.5 6.5l-11 11"/></g></symbol>
  <symbol id="i-check" viewBox="0 0 24 24"><g fill="none" stroke="currentColor" stroke-width="2" stroke-linecap="round" stroke-linejoin="round"><path d="M5 12.5l4.5 4.5L19 7.5"/></g></symbol>
  <symbol id="i-copy" viewBox="0 0 24 24"><g fill="none" stroke="currentColor" stroke-width="1.8" stroke-linecap="round" stroke-linejoin="round"><rect x="9" y="9" width="11" height="11" rx="2.5"/><path d="M15 9V6.5A2.5 2.5 0 0 0 12.5 4h-6A2.5 2.5 0 0 0 4 6.5v6A2.5 2.5 0 0 0 6.5 15H9"/></g></symbol>
  <symbol id="i-refresh" viewBox="0 0 24 24"><g fill="none" stroke="currentColor" stroke-width="1.8" stroke-linecap="round" stroke-linejoin="round"><path d="M19.5 10.5A7.7 7.7 0 0 0 6 6.6L4.5 8.2"/><path d="M4.5 4v4.2h4.2"/><path d="M4.5 13.5A7.7 7.7 0 0 0 18 17.4l1.5-1.6"/><path d="M19.5 20v-4.2h-4.2"/></g></symbol>
  <symbol id="i-trash" viewBox="0 0 24 24"><g fill="none" stroke="currentColor" stroke-width="1.8" stroke-linecap="round" stroke-linejoin="round"><path d="M4 7h16"/><path d="M10 11v6M14 11v6"/><path d="M6 7l1 12a2 2 0 0 0 2 2h6a2 2 0 0 0 2-2l1-12"/><path d="M9 7V4.5A1.5 1.5 0 0 1 10.5 3h3A1.5 1.5 0 0 1 15 4.5V7"/></g></symbol>
  <symbol id="i-edit" viewBox="0 0 24 24"><g fill="none" stroke="currentColor" stroke-width="1.8" stroke-linecap="round" stroke-linejoin="round"><path d="M4 20h4L19 9a2.83 2.83 0 0 0-4-4L4 16z"/><path d="M13.5 6.5l4 4"/></g></symbol>
  <symbol id="i-clone" viewBox="0 0 24 24"><g fill="none" stroke="currentColor" stroke-width="1.8" stroke-linecap="round" stroke-linejoin="round"><rect x="8" y="8" width="12.5" height="12.5" rx="2.5"/><path d="M16 8V6a2.5 2.5 0 0 0-2.5-2.5H6A2.5 2.5 0 0 0 3.5 6v7.5A2.5 2.5 0 0 0 6 16h2"/><path d="M14.25 11.5v5.5M11.5 14.25H17"/></g></symbol>
  <symbol id="i-shield" viewBox="0 0 24 24"><g fill="none" stroke="currentColor" stroke-width="1.8" stroke-linecap="round" stroke-linejoin="round"><path d="M12 3l7.5 3v5.5c0 4.5-3.2 8.3-7.5 9.5-4.3-1.2-7.5-5-7.5-9.5V6z"/><path d="M9 12l2 2 4-4"/></g></symbol>
  <symbol id="i-key" viewBox="0 0 24 24"><g fill="none" stroke="currentColor" stroke-width="1.8" stroke-linecap="round" stroke-linejoin="round"><circle cx="8" cy="15" r="4"/><path d="M11 12l8.5-8.5M16 7l2.5 2.5M13.8 9.2l2 2"/></g></symbol>
  <symbol id="i-lock" viewBox="0 0 24 24"><g fill="none" stroke="currentColor" stroke-width="1.8" stroke-linecap="round" stroke-linejoin="round"><rect x="5" y="10.5" width="14" height="10" rx="2.5"/><path d="M8 10.5V7.5a4 4 0 0 1 8 0v3"/></g></symbol>
  <symbol id="i-card" viewBox="0 0 24 24"><g fill="none" stroke="currentColor" stroke-width="1.8" stroke-linecap="round" stroke-linejoin="round"><rect x="3" y="5.5" width="18" height="13" rx="2.5"/><path d="M3 10h18M7 15h3"/></g></symbol>
  <symbol id="i-chevron-right" viewBox="0 0 24 24"><g fill="none" stroke="currentColor" stroke-width="1.9" stroke-linecap="round" stroke-linejoin="round"><path d="M9.5 6l6 6-6 6"/></g></symbol>
  <symbol id="i-chevron-down" viewBox="0 0 24 24"><g fill="none" stroke="currentColor" stroke-width="1.9" stroke-linecap="round" stroke-linejoin="round"><path d="M6 9.5l6 6 6-6"/></g></symbol>
  <symbol id="i-sun" viewBox="0 0 24 24"><g fill="none" stroke="currentColor" stroke-width="1.8" stroke-linecap="round"><circle cx="12" cy="12" r="4"/><path d="M12 2.5v2M12 19.5v2M4.6 4.6L6 6M18 18l1.4 1.4M2.5 12h2M19.5 12h2M4.6 19.4L6 18M18 6l1.4-1.4"/></g></symbol>
  <symbol id="i-moon" viewBox="0 0 24 24"><g fill="none" stroke="currentColor" stroke-width="1.8" stroke-linecap="round" stroke-linejoin="round"><path d="M20 14.5A8 8 0 0 1 9.5 4a8 8 0 1 0 10.5 10.5z"/></g></symbol>
  <symbol id="i-monitor" viewBox="0 0 24 24"><g fill="none" stroke="currentColor" stroke-width="1.8" stroke-linecap="round" stroke-linejoin="round"><rect x="3" y="4" width="18" height="12.5" rx="2"/><path d="M8.5 20.5h7M12 16.5v4"/></g></symbol>
  <symbol id="i-terminal" viewBox="0 0 24 24"><g fill="none" stroke="currentColor" stroke-width="1.8" stroke-linecap="round" stroke-linejoin="round"><rect x="3" y="4" width="18" height="16" rx="2.5"/><path d="M7 9.5l3 2.5-3 2.5M12.5 15H17"/></g></symbol>
  <symbol id="i-link" viewBox="0 0 24 24"><g fill="none" stroke="currentColor" stroke-width="1.8" stroke-linecap="round" stroke-linejoin="round"><path d="M10 14a4.5 4.5 0 0 0 6.4 0l3-3a4.5 4.5 0 0 0-6.4-6.4l-1 1"/><path d="M14 10a4.5 4.5 0 0 0-6.4 0l-3 3a4.5 4.5 0 0 0 6.4 6.4l1-1"/></g></symbol>
  <symbol id="i-alert" viewBox="0 0 24 24"><g fill="none" stroke="currentColor" stroke-width="1.8" stroke-linecap="round" stroke-linejoin="round"><path d="M10.3 4.6L3.2 17a2 2 0 0 0 1.7 3h14.2a2 2 0 0 0 1.7-3L13.7 4.6a2 2 0 0 0-3.4 0z"/><path d="M12 9.5v4M12 16.8h.01"/></g></symbol>
  <symbol id="i-info" viewBox="0 0 24 24"><g fill="none" stroke="currentColor" stroke-width="1.8" stroke-linecap="round" stroke-linejoin="round"><circle cx="12" cy="12" r="9"/><path d="M12 11v5M12 7.8h.01"/></g></symbol>
  <symbol id="i-bell" viewBox="0 0 24 24"><g fill="none" stroke="currentColor" stroke-width="1.8" stroke-linecap="round" stroke-linejoin="round"><path d="M6 16v-5a6 6 0 0 1 12 0v5l1.5 2h-15z"/><path d="M10 20.5a2 2 0 0 0 4 0"/></g></symbol>
  <symbol id="i-folder" viewBox="0 0 24 24"><g fill="none" stroke="currentColor" stroke-width="1.8" stroke-linecap="round" stroke-linejoin="round"><path d="M3.5 7.5a2 2 0 0 1 2-2h4l2 2h7a2 2 0 0 1 2 2v8a2 2 0 0 1-2 2h-13a2 2 0 0 1-2-2z"/></g></symbol>
  <symbol id="i-clock" viewBox="0 0 24 24"><g fill="none" stroke="currentColor" stroke-width="1.8" stroke-linecap="round" stroke-linejoin="round"><circle cx="12" cy="12" r="9"/><path d="M12 7v5l3 2"/></g></symbol>
  <symbol id="i-tab" viewBox="0 0 24 24"><g fill="none" stroke="currentColor" stroke-width="1.8" stroke-linecap="round" stroke-linejoin="round"><rect x="3" y="4" width="18" height="16" rx="2.5"/><path d="M3 9h18M6.5 6.5h.01M9.5 6.5h.01"/></g></symbol>
  <symbol id="i-zap" viewBox="0 0 24 24"><g fill="none" stroke="currentColor" stroke-width="1.8" stroke-linecap="round" stroke-linejoin="round"><path d="M13 3L5 13.5h6L10 21l8-10.5h-6z"/></g></symbol>
  <symbol id="i-user" viewBox="0 0 24 24"><g fill="none" stroke="currentColor" stroke-width="1.8" stroke-linecap="round" stroke-linejoin="round"><circle cx="12" cy="8.5" r="3.5"/><path d="M5 20a7 7 0 0 1 14 0"/></g></symbol>
  <symbol id="i-import" viewBox="0 0 24 24"><g fill="none" stroke="currentColor" stroke-width="1.8" stroke-linecap="round" stroke-linejoin="round"><path d="M12 4v11M7.5 10.5L12 15l4.5-4.5"/><path d="M5 15v3a2 2 0 0 0 2 2h10a2 2 0 0 0 2-2v-3"/></g></symbol>
  <symbol id="i-chat" viewBox="0 0 24 24"><g fill="none" stroke="currentColor" stroke-width="1.8" stroke-linecap="round" stroke-linejoin="round"><path d="M20 11.5a8 8 0 0 1-11.8 7L4 20l1.5-4A8 8 0 1 1 20 11.5z"/></g></symbol>
  <symbol id="i-code" viewBox="0 0 24 24"><g fill="none" stroke="currentColor" stroke-width="1.8" stroke-linecap="round" stroke-linejoin="round"><path d="M8.5 7L3.5 12l5 5M15.5 7l5 5-5 5"/></g></symbol>
  <symbol id="i-help" viewBox="0 0 24 24"><g fill="none" stroke="currentColor" stroke-width="1.8" stroke-linecap="round" stroke-linejoin="round"><circle cx="12" cy="12" r="9"/><path d="M9.6 9.4a2.5 2.5 0 1 1 3.4 2.4c-.6.3-1 .8-1 1.5v.6M12 16.9h.01"/></g></symbol>
  <symbol id="i-puzzle" viewBox="0 0 24 24"><g fill="none" stroke="currentColor" stroke-width="1.8" stroke-linecap="round" stroke-linejoin="round"><path d="M5 7.5h3.2a1.8 1.8 0 1 1 3.6 0H15v3.2a1.8 1.8 0 1 1 0 3.6V19H5v-3.5a1.8 1.8 0 1 0 0-3.6z"/></g></symbol>
  <symbol id="i-filter" viewBox="0 0 24 24"><g fill="none" stroke="currentColor" stroke-width="1.8" stroke-linecap="round" stroke-linejoin="round"><path d="M4 5h16l-6 7.5V19l-4 1.5v-8z"/></g></symbol>
  <symbol id="i-pulse-dot" viewBox="0 0 24 24"><circle cx="12" cy="12" r="5" fill="currentColor"/></symbol>
  <symbol id="i-arrow-right" viewBox="0 0 24 24"><g fill="none" stroke="currentColor" stroke-width="1.8" stroke-linecap="round" stroke-linejoin="round"><path d="M5 12h14M13 6l6 6-6 6"/></g></symbol>
  <symbol id="i-keyboard" viewBox="0 0 24 24"><g fill="none" stroke="currentColor" stroke-width="1.8" stroke-linecap="round" stroke-linejoin="round"><rect x="2.5" y="6" width="19" height="12" rx="2.5"/><path d="M6 10h.01M9.3 10h.01M12.6 10h.01M15.9 10h.01M18 10h.01M7.5 14h9"/></g></symbol>
  <symbol id="i-eye" viewBox="0 0 24 24"><g fill="none" stroke="currentColor" stroke-width="1.8" stroke-linecap="round" stroke-linejoin="round"><path d="M2.5 12S6 5.5 12 5.5 21.5 12 21.5 12 18 18.5 12 18.5 2.5 12 2.5 12z"/><circle cx="12" cy="12" r="3"/></g></symbol>
  <symbol id="i-pause" viewBox="0 0 24 24"><g fill="none" stroke="currentColor" stroke-width="2" stroke-linecap="round"><path d="M9 6v12M15 6v12"/></g></symbol>
  <symbol id="i-globe-off" viewBox="0 0 24 24"><g fill="none" stroke="currentColor" stroke-width="1.8" stroke-linecap="round" stroke-linejoin="round"><path d="M5.6 5.6A9 9 0 0 0 18.4 18.4M8.5 3.7A9 9 0 0 1 20.3 15.5"/><path d="M3 3l18 18"/></g></symbol>
  <symbol id="i-tag" viewBox="0 0 24 24"><g fill="none" stroke="currentColor" stroke-width="1.8" stroke-linecap="round" stroke-linejoin="round"><path d="M3.5 12.2V4.8a1.3 1.3 0 0 1 1.3-1.3h7.4l8.3 8.3a1.3 1.3 0 0 1 0 1.8l-7.4 7.4a1.3 1.3 0 0 1-1.8 0z"/><circle cx="8" cy="8" r="1.4"/></g></symbol>
  <symbol id="i-file" viewBox="0 0 24 24"><g fill="none" stroke="currentColor" stroke-width="1.8" stroke-linecap="round" stroke-linejoin="round"><path d="M14 3H7a2 2 0 0 0-2 2v14a2 2 0 0 0 2 2h10a2 2 0 0 0 2-2V8z"/><path d="M14 3v5h5M9 13h6M9 17h4"/></g></symbol>
</svg>
